REM DIRINDEX 1\2\6,1\2\7,1\2\8,1\2\9,1\3\10,1\3\11,1\4\12,1\4\13,1\4\14,1\5\15,1\5\16,1\5\17
REM DIRNAME cjc020,folder01,folder02,folder03,folder04,folder05,folder06,folder07,folder08,folder09,folder10,folder11,folder12,folder13,folder14,folder15,folder16
TITLE ""
FILE "1900_3_059 sec10_0968_0984.mp3" MP3
  TRACK 01 AUDIO
    TITLE "0:"
    INDEX 01 00:00:00
  TRACK 02 AUDIO
    TITLE "17:cjc020_7912"
    INDEX 01 00:00:13
  TRACK 03 AUDIO
    TITLE "0:"
    INDEX 01 00:01:38
  TRACK 04 AUDIO
    TITLE "16:cjc020_7913"
    INDEX 01 00:01:42
  TRACK 05 AUDIO
    TITLE "0:"
    INDEX 01 00:02:47
  TRACK 06 AUDIO
    TITLE "17:cjc020_7914"
    INDEX 01 00:03:31
  TRACK 07 AUDIO
    TITLE "0:"
    INDEX 01 00:04:44
  TRACK 08 AUDIO
    TITLE "16:cjc020_7915"
    INDEX 01 00:04:54
  TRACK 09 AUDIO
    TITLE "0:"
    INDEX 01 00:05:63
  TRACK 10 AUDIO
    TITLE "17:cjc020_7916"
    INDEX 01 00:06:47
  TRACK 11 AUDIO
    TITLE "0:"
    INDEX 01 00:07:74
  TRACK 12 AUDIO
    TITLE "16:cjc020_7917"
    INDEX 01 00:08:03
  TRACK 13 AUDIO
    TITLE "0:"
    INDEX 01 00:09:32
  TRACK 14 AUDIO
    TITLE "17:cjc020_7918"
    INDEX 01 00:10:21
  TRACK 15 AUDIO
    TITLE "0:"
    INDEX 01 00:11:27
  TRACK 16 AUDIO
    TITLE "16:cjc020_7919"
    INDEX 01 00:11:39
  TRACK 17 AUDIO
    TITLE "0:"
    INDEX 01 00:12:73
  TRACK 18 AUDIO
    TITLE "17:cjc020_7920"
    INDEX 01 00:13:59
  TRACK 19 AUDIO
    TITLE "0:"
    INDEX 01 00:14:72
  TRACK 20 AUDIO
    TITLE "16:cjc020_7921"
    INDEX 01 00:15:03
  TRACK 21 AUDIO
    TITLE "0:"
    INDEX 01 00:16:28
  TRACK 22 AUDIO
    TITLE "17:cjc020_7922"
    INDEX 01 00:17:14
  TRACK 23 AUDIO
    TITLE "0:"
    INDEX 01 00:18:42
  TRACK 24 AUDIO
    TITLE "16:cjc020_7923"
    INDEX 01 00:18:48
  TRACK 25 AUDIO
    TITLE "0:"
    INDEX 01 00:20:08
  TRACK 26 AUDIO
    TITLE "17:cjc020_7924"
    INDEX 01 00:20:63
  TRACK 27 AUDIO
    TITLE "0:"
    INDEX 01 00:22:72
  TRACK 28 AUDIO
    TITLE "16:cjc020_7925"
    INDEX 01 00:23:03
  TRACK 29 AUDIO
    TITLE "0:"
    INDEX 01 00:24:08
  TRACK 30 AUDIO
    TITLE "17:cjc020_7926"
    INDEX 01 00:24:65
  TRACK 31 AUDIO
    TITLE "0:"
    INDEX 01 00:25:72
  TRACK 32 AUDIO
    TITLE "16:cjc020_7927"
    INDEX 01 00:25:74
  TRACK 33 AUDIO
    TITLE "0:"
    INDEX 01 00:27:20
  TRACK 34 AUDIO
    TITLE "17:cjc020_7928"
    INDEX 01 00:28:04
  TRACK 35 AUDIO
    TITLE "0:"
    INDEX 01 00:30:16
  TRACK 36 AUDIO
    TITLE "16:cjc020_7929"
    INDEX 01 00:30:18
  TRACK 37 AUDIO
    TITLE "0:"
    INDEX 01 00:31:24
  TRACK 38 AUDIO
    TITLE "17:cjc020_7930"
    INDEX 01 00:32:13
  TRACK 39 AUDIO
    TITLE "0:"
    INDEX 01 00:34:26
  TRACK 40 AUDIO
    TITLE "16:cjc020_7931"
    INDEX 01 00:34:32
  TRACK 41 AUDIO
    TITLE "0:"
    INDEX 01 00:35:49
  TRACK 42 AUDIO
    TITLE "17:cjc020_7932"
    INDEX 01 00:36:35
  TRACK 43 AUDIO
    TITLE "0:"
    INDEX 01 00:37:42
  TRACK 44 AUDIO
    TITLE "16:cjc020_7933"
    INDEX 01 00:37:48
  TRACK 45 AUDIO
    TITLE "0:"
    INDEX 01 00:38:63
  TRACK 46 AUDIO
    TITLE "17:cjc020_7934"
    INDEX 01 00:39:47
  TRACK 47 AUDIO
    TITLE "0:"
    INDEX 01 00:41:04
  TRACK 48 AUDIO
    TITLE "16:cjc020_7935"
    INDEX 01 00:41:10
  TRACK 49 AUDIO
    TITLE "0:"
    INDEX 01 00:42:31
  TRACK 50 AUDIO
    TITLE "17:cjc020_7936"
    INDEX 01 00:43:15
  TRACK 51 AUDIO
    TITLE "0:"
    INDEX 01 00:44:30
  TRACK 52 AUDIO
    TITLE "16:cjc020_7937"
    INDEX 01 00:44:36
  TRACK 53 AUDIO
    TITLE "0:"
    INDEX 01 00:45:49
  TRACK 54 AUDIO
    TITLE "17:cjc020_7938"
    INDEX 01 00:46:33
  TRACK 55 AUDIO
    TITLE "0:"
    INDEX 01 00:47:50
  TRACK 56 AUDIO
    TITLE "16:cjc020_7939"
    INDEX 01 00:47:54
  TRACK 57 AUDIO
    TITLE "0:"
    INDEX 01 00:48:69
  TRACK 58 AUDIO
    TITLE "17:cjc020_7940"
    INDEX 01 00:49:51
  TRACK 59 AUDIO
    TITLE "0:"
    INDEX 01 00:51:01
  TRACK 60 AUDIO
    TITLE "16:cjc020_7941"
    INDEX 01 00:51:03
  TRACK 61 AUDIO
    TITLE "0:"
    INDEX 01 00:52:02
  TRACK 62 AUDIO
    TITLE "17:cjc020_7942"
    INDEX 01 00:52:57
  TRACK 63 AUDIO
    TITLE "0:"
    INDEX 01 00:54:07
  TRACK 64 AUDIO
    TITLE "16:cjc020_7943"
    INDEX 01 00:54:09
  TRACK 65 AUDIO
    TITLE "0:"
    INDEX 01 00:55:26
  TRACK 66 AUDIO
    TITLE "17:cjc020_7944"
    INDEX 01 00:56:06
  TRACK 67 AUDIO
    TITLE "0:"
    INDEX 01 00:57:33
  TRACK 68 AUDIO
    TITLE "16:cjc020_7945"
    INDEX 01 00:57:37
  TRACK 69 AUDIO
    TITLE "0:"
    INDEX 01 00:58:48
